<mxfile host="Electron" modified="2024-05-18T11:34:45.521Z" agent="Mozilla/5.0 (Windows NT 10.0; Win64; x64) AppleWebKit/537.36 (KHTML, like Gecko) draw.io/24.4.0 Chrome/120.0.6099.109 Electron/28.1.0 Safari/537.36" etag="Ya3A9js71TpiGPSR9HKP" version="24.4.0" type="device">
  <diagram id="BYHq4foiCU2je3_C-BPE" name="Page-1">
    <mxGraphModel dx="864" dy="556" grid="1" gridSize="10" guides="1" tooltips="1" connect="1" arrows="1" fold="1" page="1" pageScale="1" pageWidth="850" pageHeight="1100" math="0" shadow="0">
      <root>
        <mxCell id="0" />
        <mxCell id="1" parent="0" />
        <mxCell id="idIuEqh7UeTnPX4EeObB-1" value="" style="ellipse;whiteSpace=wrap;html=1;" parent="1" vertex="1">
          <mxGeometry x="20" y="20" width="70" height="40" as="geometry" />
        </mxCell>
        <mxCell id="idIuEqh7UeTnPX4EeObB-33" style="edgeStyle=orthogonalEdgeStyle;rounded=0;orthogonalLoop=1;jettySize=auto;html=1;exitX=1;exitY=0.5;exitDx=0;exitDy=0;entryX=0;entryY=0.5;entryDx=0;entryDy=0;" parent="1" source="idIuEqh7UeTnPX4EeObB-3" target="idIuEqh7UeTnPX4EeObB-4" edge="1">
          <mxGeometry relative="1" as="geometry" />
        </mxCell>
        <mxCell id="idIuEqh7UeTnPX4EeObB-3" value="Start" style="text;html=1;strokeColor=none;fillColor=none;align=center;verticalAlign=middle;whiteSpace=wrap;rounded=0;" parent="1" vertex="1">
          <mxGeometry x="25" y="25" width="60" height="30" as="geometry" />
        </mxCell>
        <mxCell id="idIuEqh7UeTnPX4EeObB-34" style="edgeStyle=orthogonalEdgeStyle;rounded=0;orthogonalLoop=1;jettySize=auto;html=1;exitX=1;exitY=0.5;exitDx=0;exitDy=0;entryX=0;entryY=0.5;entryDx=0;entryDy=0;" parent="1" source="idIuEqh7UeTnPX4EeObB-4" target="idIuEqh7UeTnPX4EeObB-6" edge="1">
          <mxGeometry relative="1" as="geometry" />
        </mxCell>
        <mxCell id="idIuEqh7UeTnPX4EeObB-4" value="" style="rounded=0;whiteSpace=wrap;html=1;" parent="1" vertex="1">
          <mxGeometry x="140" y="25" width="160" height="35" as="geometry" />
        </mxCell>
        <mxCell id="idIuEqh7UeTnPX4EeObB-5" value="Initialize the camera" style="text;html=1;strokeColor=none;fillColor=none;align=center;verticalAlign=middle;whiteSpace=wrap;rounded=0;" parent="1" vertex="1">
          <mxGeometry x="165" y="30" width="110" height="30" as="geometry" />
        </mxCell>
        <mxCell id="idIuEqh7UeTnPX4EeObB-38" style="edgeStyle=orthogonalEdgeStyle;rounded=0;orthogonalLoop=1;jettySize=auto;html=1;exitX=1;exitY=0.5;exitDx=0;exitDy=0;entryX=0;entryY=0.5;entryDx=0;entryDy=0;" parent="1" source="idIuEqh7UeTnPX4EeObB-6" target="idIuEqh7UeTnPX4EeObB-12" edge="1">
          <mxGeometry relative="1" as="geometry" />
        </mxCell>
        <mxCell id="Pt5lEyycjy911fsZ5f22-26" value="" style="edgeStyle=orthogonalEdgeStyle;rounded=0;orthogonalLoop=1;jettySize=auto;html=1;" edge="1" parent="1" source="idIuEqh7UeTnPX4EeObB-6" target="Pt5lEyycjy911fsZ5f22-24">
          <mxGeometry relative="1" as="geometry" />
        </mxCell>
        <mxCell id="idIuEqh7UeTnPX4EeObB-6" value="" style="rhombus;whiteSpace=wrap;html=1;" parent="1" vertex="1">
          <mxGeometry x="360" y="5" width="80" height="80" as="geometry" />
        </mxCell>
        <mxCell id="idIuEqh7UeTnPX4EeObB-7" value="Is&lt;br&gt;init a&lt;br&gt;success&lt;br&gt;?" style="text;html=1;strokeColor=none;fillColor=none;align=center;verticalAlign=middle;whiteSpace=wrap;rounded=0;" parent="1" vertex="1">
          <mxGeometry x="370" y="30" width="60" height="30" as="geometry" />
        </mxCell>
        <mxCell id="idIuEqh7UeTnPX4EeObB-8" value="Yes" style="text;html=1;strokeColor=none;fillColor=none;align=center;verticalAlign=middle;whiteSpace=wrap;rounded=0;" parent="1" vertex="1">
          <mxGeometry x="430" y="20" width="60" height="30" as="geometry" />
        </mxCell>
        <mxCell id="idIuEqh7UeTnPX4EeObB-9" value="No" style="text;html=1;strokeColor=none;fillColor=none;align=center;verticalAlign=middle;whiteSpace=wrap;rounded=0;" parent="1" vertex="1">
          <mxGeometry x="350" y="85" width="60" height="30" as="geometry" />
        </mxCell>
        <mxCell id="idIuEqh7UeTnPX4EeObB-11" value="Print&amp;nbsp;&lt;br&gt;&quot; Camera Init failed &quot;" style="text;html=1;strokeColor=none;fillColor=none;align=center;verticalAlign=middle;whiteSpace=wrap;rounded=0;" parent="1" vertex="1">
          <mxGeometry x="330" y="120" width="120" height="30" as="geometry" />
        </mxCell>
        <mxCell id="idIuEqh7UeTnPX4EeObB-12" value="" style="rounded=0;whiteSpace=wrap;html=1;" parent="1" vertex="1">
          <mxGeometry x="500" y="27.5" width="150" height="35" as="geometry" />
        </mxCell>
        <mxCell id="idIuEqh7UeTnPX4EeObB-42" style="edgeStyle=orthogonalEdgeStyle;rounded=0;orthogonalLoop=1;jettySize=auto;html=1;exitX=0.5;exitY=1;exitDx=0;exitDy=0;entryX=0.5;entryY=0;entryDx=0;entryDy=0;" parent="1" source="idIuEqh7UeTnPX4EeObB-13" target="idIuEqh7UeTnPX4EeObB-14" edge="1">
          <mxGeometry relative="1" as="geometry" />
        </mxCell>
        <mxCell id="idIuEqh7UeTnPX4EeObB-13" value="Connect to WiFi" style="text;html=1;strokeColor=none;fillColor=none;align=center;verticalAlign=middle;whiteSpace=wrap;rounded=0;" parent="1" vertex="1">
          <mxGeometry x="520" y="30" width="100" height="30" as="geometry" />
        </mxCell>
        <mxCell id="idIuEqh7UeTnPX4EeObB-14" value="" style="rhombus;whiteSpace=wrap;html=1;" parent="1" vertex="1">
          <mxGeometry x="530" y="110" width="80" height="80" as="geometry" />
        </mxCell>
        <mxCell id="Pt5lEyycjy911fsZ5f22-29" value="" style="edgeStyle=orthogonalEdgeStyle;rounded=0;orthogonalLoop=1;jettySize=auto;html=1;" edge="1" parent="1" source="idIuEqh7UeTnPX4EeObB-15" target="Pt5lEyycjy911fsZ5f22-28">
          <mxGeometry relative="1" as="geometry" />
        </mxCell>
        <mxCell id="idIuEqh7UeTnPX4EeObB-15" value="Is&lt;br&gt;connect a&lt;br&gt;success&lt;br&gt;?" style="text;html=1;strokeColor=none;fillColor=none;align=center;verticalAlign=middle;whiteSpace=wrap;rounded=0;" parent="1" vertex="1">
          <mxGeometry x="540" y="135" width="60" height="30" as="geometry" />
        </mxCell>
        <mxCell id="idIuEqh7UeTnPX4EeObB-17" value="Yes" style="text;html=1;strokeColor=none;fillColor=none;align=center;verticalAlign=middle;whiteSpace=wrap;rounded=0;" parent="1" vertex="1">
          <mxGeometry x="520" y="190" width="60" height="30" as="geometry" />
        </mxCell>
        <mxCell id="idIuEqh7UeTnPX4EeObB-18" value="No" style="text;html=1;strokeColor=none;fillColor=none;align=center;verticalAlign=middle;whiteSpace=wrap;rounded=0;" parent="1" vertex="1">
          <mxGeometry x="590" y="130" width="60" height="30" as="geometry" />
        </mxCell>
        <mxCell id="idIuEqh7UeTnPX4EeObB-19" value="Print &quot;...&quot;" style="text;html=1;strokeColor=none;fillColor=none;align=center;verticalAlign=middle;whiteSpace=wrap;rounded=0;" parent="1" vertex="1">
          <mxGeometry x="647.5" y="135" width="60" height="30" as="geometry" />
        </mxCell>
        <mxCell id="idIuEqh7UeTnPX4EeObB-20" value="" style="rounded=0;whiteSpace=wrap;html=1;" parent="1" vertex="1">
          <mxGeometry x="505" y="235" width="120" height="35" as="geometry" />
        </mxCell>
        <mxCell id="idIuEqh7UeTnPX4EeObB-46" style="edgeStyle=orthogonalEdgeStyle;rounded=0;orthogonalLoop=1;jettySize=auto;html=1;exitX=0.5;exitY=1;exitDx=0;exitDy=0;entryX=0.5;entryY=0;entryDx=0;entryDy=0;" parent="1" source="idIuEqh7UeTnPX4EeObB-21" target="idIuEqh7UeTnPX4EeObB-22" edge="1">
          <mxGeometry relative="1" as="geometry" />
        </mxCell>
        <mxCell id="idIuEqh7UeTnPX4EeObB-21" value="Capture Frame" style="text;html=1;strokeColor=none;fillColor=none;align=center;verticalAlign=middle;whiteSpace=wrap;rounded=0;" parent="1" vertex="1">
          <mxGeometry x="520" y="240" width="90" height="30" as="geometry" />
        </mxCell>
        <mxCell id="idIuEqh7UeTnPX4EeObB-22" value="" style="rhombus;whiteSpace=wrap;html=1;" parent="1" vertex="1">
          <mxGeometry x="525" y="310" width="80" height="80" as="geometry" />
        </mxCell>
        <mxCell id="Pt5lEyycjy911fsZ5f22-32" value="" style="edgeStyle=orthogonalEdgeStyle;rounded=0;orthogonalLoop=1;jettySize=auto;html=1;" edge="1" parent="1" source="idIuEqh7UeTnPX4EeObB-23" target="Pt5lEyycjy911fsZ5f22-31">
          <mxGeometry relative="1" as="geometry" />
        </mxCell>
        <mxCell id="idIuEqh7UeTnPX4EeObB-23" value="Is&lt;br&gt;capture a&lt;br&gt;success&lt;br&gt;?" style="text;html=1;strokeColor=none;fillColor=none;align=center;verticalAlign=middle;whiteSpace=wrap;rounded=0;" parent="1" vertex="1">
          <mxGeometry x="535" y="335" width="60" height="30" as="geometry" />
        </mxCell>
        <mxCell id="idIuEqh7UeTnPX4EeObB-24" value="No" style="text;html=1;strokeColor=none;fillColor=none;align=center;verticalAlign=middle;whiteSpace=wrap;rounded=0;" parent="1" vertex="1">
          <mxGeometry x="490" y="325" width="60" height="30" as="geometry" />
        </mxCell>
        <mxCell id="idIuEqh7UeTnPX4EeObB-25" value="Yes" style="text;html=1;strokeColor=none;fillColor=none;align=center;verticalAlign=middle;whiteSpace=wrap;rounded=0;" parent="1" vertex="1">
          <mxGeometry x="510" y="390" width="60" height="30" as="geometry" />
        </mxCell>
        <mxCell id="idIuEqh7UeTnPX4EeObB-27" value="Print &lt;br&gt;&quot; Camera capture failed &quot;" style="text;html=1;strokeColor=none;fillColor=none;align=center;verticalAlign=middle;whiteSpace=wrap;rounded=0;" parent="1" vertex="1">
          <mxGeometry x="340" y="335" width="140" height="30" as="geometry" />
        </mxCell>
        <mxCell id="idIuEqh7UeTnPX4EeObB-29" value="" style="rounded=0;whiteSpace=wrap;html=1;" parent="1" vertex="1">
          <mxGeometry x="490" y="410" width="140" height="30" as="geometry" />
        </mxCell>
        <mxCell id="idIuEqh7UeTnPX4EeObB-51" value="" style="edgeStyle=orthogonalEdgeStyle;rounded=0;orthogonalLoop=1;jettySize=auto;html=1;" parent="1" source="idIuEqh7UeTnPX4EeObB-30" target="idIuEqh7UeTnPX4EeObB-50" edge="1">
          <mxGeometry relative="1" as="geometry" />
        </mxCell>
        <mxCell id="idIuEqh7UeTnPX4EeObB-30" value="Run object detection&amp;nbsp;" style="text;html=1;strokeColor=none;fillColor=none;align=center;verticalAlign=middle;whiteSpace=wrap;rounded=0;" parent="1" vertex="1">
          <mxGeometry x="490" y="410" width="130" height="30" as="geometry" />
        </mxCell>
        <mxCell id="idIuEqh7UeTnPX4EeObB-45" style="edgeStyle=orthogonalEdgeStyle;rounded=0;orthogonalLoop=1;jettySize=auto;html=1;exitX=0.5;exitY=1;exitDx=0;exitDy=0;entryX=0.567;entryY=0.029;entryDx=0;entryDy=0;entryPerimeter=0;" parent="1" source="idIuEqh7UeTnPX4EeObB-14" target="idIuEqh7UeTnPX4EeObB-20" edge="1">
          <mxGeometry relative="1" as="geometry" />
        </mxCell>
        <mxCell id="idIuEqh7UeTnPX4EeObB-49" style="edgeStyle=orthogonalEdgeStyle;rounded=0;orthogonalLoop=1;jettySize=auto;html=1;exitX=0.5;exitY=1;exitDx=0;exitDy=0;entryX=0.562;entryY=0;entryDx=0;entryDy=0;entryPerimeter=0;" parent="1" source="idIuEqh7UeTnPX4EeObB-22" target="idIuEqh7UeTnPX4EeObB-30" edge="1">
          <mxGeometry relative="1" as="geometry" />
        </mxCell>
        <mxCell id="idIuEqh7UeTnPX4EeObB-50" value="" style="whiteSpace=wrap;html=1;" parent="1" vertex="1">
          <mxGeometry x="463.75" y="460" width="182.5" height="35" as="geometry" />
        </mxCell>
        <mxCell id="idIuEqh7UeTnPX4EeObB-55" value="" style="edgeStyle=orthogonalEdgeStyle;rounded=0;orthogonalLoop=1;jettySize=auto;html=1;" parent="1" source="idIuEqh7UeTnPX4EeObB-52" target="idIuEqh7UeTnPX4EeObB-54" edge="1">
          <mxGeometry relative="1" as="geometry" />
        </mxCell>
        <mxCell id="W8VHk442hwBkpV6ls80r-2" style="edgeStyle=orthogonalEdgeStyle;rounded=0;orthogonalLoop=1;jettySize=auto;html=1;exitX=1;exitY=0.5;exitDx=0;exitDy=0;entryX=1;entryY=0.5;entryDx=0;entryDy=0;" parent="1" source="idIuEqh7UeTnPX4EeObB-52" target="idIuEqh7UeTnPX4EeObB-20" edge="1">
          <mxGeometry relative="1" as="geometry" />
        </mxCell>
        <mxCell id="idIuEqh7UeTnPX4EeObB-52" value="Send detected object to Arduino" style="text;html=1;strokeColor=none;fillColor=none;align=center;verticalAlign=middle;whiteSpace=wrap;rounded=0;" parent="1" vertex="1">
          <mxGeometry x="452.5" y="462.5" width="195" height="30" as="geometry" />
        </mxCell>
        <mxCell id="idIuEqh7UeTnPX4EeObB-54" value="" style="whiteSpace=wrap;html=1;" parent="1" vertex="1">
          <mxGeometry x="460" y="520" width="190" height="30" as="geometry" />
        </mxCell>
        <mxCell id="idIuEqh7UeTnPX4EeObB-58" value="" style="edgeStyle=orthogonalEdgeStyle;rounded=0;orthogonalLoop=1;jettySize=auto;html=1;" parent="1" source="idIuEqh7UeTnPX4EeObB-56" target="idIuEqh7UeTnPX4EeObB-57" edge="1">
          <mxGeometry relative="1" as="geometry" />
        </mxCell>
        <mxCell id="idIuEqh7UeTnPX4EeObB-56" value="Initialize Serial Communication" style="text;html=1;strokeColor=none;fillColor=none;align=center;verticalAlign=middle;whiteSpace=wrap;rounded=0;" parent="1" vertex="1">
          <mxGeometry x="463.75" y="520" width="180" height="30" as="geometry" />
        </mxCell>
        <mxCell id="idIuEqh7UeTnPX4EeObB-60" value="" style="edgeStyle=orthogonalEdgeStyle;rounded=0;orthogonalLoop=1;jettySize=auto;html=1;" parent="1" source="idIuEqh7UeTnPX4EeObB-57" target="idIuEqh7UeTnPX4EeObB-59" edge="1">
          <mxGeometry relative="1" as="geometry" />
        </mxCell>
        <mxCell id="idIuEqh7UeTnPX4EeObB-57" value="" style="whiteSpace=wrap;html=1;" parent="1" vertex="1">
          <mxGeometry x="360" y="505" width="80" height="60" as="geometry" />
        </mxCell>
        <mxCell id="idIuEqh7UeTnPX4EeObB-68" style="edgeStyle=orthogonalEdgeStyle;rounded=0;orthogonalLoop=1;jettySize=auto;html=1;exitX=0.5;exitY=0;exitDx=0;exitDy=0;entryX=0.5;entryY=0;entryDx=0;entryDy=0;" parent="1" source="idIuEqh7UeTnPX4EeObB-59" target="idIuEqh7UeTnPX4EeObB-57" edge="1">
          <mxGeometry relative="1" as="geometry" />
        </mxCell>
        <mxCell id="Pt5lEyycjy911fsZ5f22-36" value="" style="edgeStyle=orthogonalEdgeStyle;rounded=0;orthogonalLoop=1;jettySize=auto;html=1;" edge="1" parent="1" source="idIuEqh7UeTnPX4EeObB-59" target="Pt5lEyycjy911fsZ5f22-35">
          <mxGeometry relative="1" as="geometry" />
        </mxCell>
        <mxCell id="idIuEqh7UeTnPX4EeObB-59" value="" style="rhombus;whiteSpace=wrap;html=1;" parent="1" vertex="1">
          <mxGeometry x="250" y="495" width="80" height="80" as="geometry" />
        </mxCell>
        <mxCell id="idIuEqh7UeTnPX4EeObB-65" value="" style="ellipse;whiteSpace=wrap;html=1;" parent="1" vertex="1">
          <mxGeometry x="30" y="350" width="70" height="40" as="geometry" />
        </mxCell>
        <mxCell id="idIuEqh7UeTnPX4EeObB-66" value="Check data from ESP32-Cam" style="text;html=1;strokeColor=none;fillColor=none;align=center;verticalAlign=middle;whiteSpace=wrap;rounded=0;" parent="1" vertex="1">
          <mxGeometry x="365" y="520" width="70" height="30" as="geometry" />
        </mxCell>
        <mxCell id="idIuEqh7UeTnPX4EeObB-67" value="Is&lt;br&gt;Data&lt;br&gt;available&lt;br&gt;?" style="text;html=1;strokeColor=none;fillColor=none;align=center;verticalAlign=middle;whiteSpace=wrap;rounded=0;" parent="1" vertex="1">
          <mxGeometry x="260" y="520" width="60" height="30" as="geometry" />
        </mxCell>
        <mxCell id="idIuEqh7UeTnPX4EeObB-69" value="No" style="text;html=1;strokeColor=none;fillColor=none;align=center;verticalAlign=middle;whiteSpace=wrap;rounded=0;" parent="1" vertex="1">
          <mxGeometry x="310" y="450" width="60" height="30" as="geometry" />
        </mxCell>
        <mxCell id="idIuEqh7UeTnPX4EeObB-70" value="Yes" style="text;html=1;strokeColor=none;fillColor=none;align=center;verticalAlign=middle;whiteSpace=wrap;rounded=0;" parent="1" vertex="1">
          <mxGeometry x="215" y="510" width="60" height="30" as="geometry" />
        </mxCell>
        <mxCell id="idIuEqh7UeTnPX4EeObB-71" value="Read Detected object" style="text;html=1;strokeColor=none;fillColor=none;align=center;verticalAlign=middle;whiteSpace=wrap;rounded=0;" parent="1" vertex="1">
          <mxGeometry x="165" y="520" width="60" height="30" as="geometry" />
        </mxCell>
        <mxCell id="idIuEqh7UeTnPX4EeObB-73" value="Play corresponding Audio" style="text;html=1;strokeColor=none;fillColor=none;align=center;verticalAlign=middle;whiteSpace=wrap;rounded=0;" parent="1" vertex="1">
          <mxGeometry x="60" y="520" width="60" height="30" as="geometry" />
        </mxCell>
        <mxCell id="idIuEqh7UeTnPX4EeObB-74" value="Stop" style="text;html=1;strokeColor=none;fillColor=none;align=center;verticalAlign=middle;whiteSpace=wrap;rounded=0;" parent="1" vertex="1">
          <mxGeometry x="35" y="355" width="60" height="30" as="geometry" />
        </mxCell>
        <mxCell id="Pt5lEyycjy911fsZ5f22-20" style="edgeStyle=orthogonalEdgeStyle;rounded=0;orthogonalLoop=1;jettySize=auto;html=1;exitX=0.5;exitY=1;exitDx=0;exitDy=0;" edge="1" parent="1">
          <mxGeometry relative="1" as="geometry">
            <mxPoint x="260" y="190" as="sourcePoint" />
            <mxPoint x="260" y="190" as="targetPoint" />
          </mxGeometry>
        </mxCell>
        <mxCell id="Pt5lEyycjy911fsZ5f22-27" style="edgeStyle=orthogonalEdgeStyle;rounded=0;orthogonalLoop=1;jettySize=auto;html=1;exitX=0.5;exitY=1;exitDx=0;exitDy=0;entryX=0.75;entryY=1;entryDx=0;entryDy=0;" edge="1" parent="1" source="Pt5lEyycjy911fsZ5f22-24" target="idIuEqh7UeTnPX4EeObB-5">
          <mxGeometry relative="1" as="geometry" />
        </mxCell>
        <mxCell id="Pt5lEyycjy911fsZ5f22-24" value="" style="shape=parallelogram;perimeter=parallelogramPerimeter;whiteSpace=wrap;html=1;fixedSize=1;fillColor=none;" vertex="1" parent="1">
          <mxGeometry x="310" y="120" width="160" height="30" as="geometry" />
        </mxCell>
        <mxCell id="Pt5lEyycjy911fsZ5f22-30" style="edgeStyle=orthogonalEdgeStyle;rounded=0;orthogonalLoop=1;jettySize=auto;html=1;exitX=0.5;exitY=0;exitDx=0;exitDy=0;entryX=1;entryY=0.5;entryDx=0;entryDy=0;" edge="1" parent="1" source="Pt5lEyycjy911fsZ5f22-28" target="idIuEqh7UeTnPX4EeObB-12">
          <mxGeometry relative="1" as="geometry" />
        </mxCell>
        <mxCell id="Pt5lEyycjy911fsZ5f22-28" value="" style="shape=parallelogram;perimeter=parallelogramPerimeter;whiteSpace=wrap;html=1;fixedSize=1;fillColor=none;" vertex="1" parent="1">
          <mxGeometry x="630" y="135" width="100" height="30" as="geometry" />
        </mxCell>
        <mxCell id="Pt5lEyycjy911fsZ5f22-33" style="edgeStyle=orthogonalEdgeStyle;rounded=0;orthogonalLoop=1;jettySize=auto;html=1;exitX=0.5;exitY=0;exitDx=0;exitDy=0;entryX=0;entryY=0.5;entryDx=0;entryDy=0;" edge="1" parent="1" source="Pt5lEyycjy911fsZ5f22-31" target="idIuEqh7UeTnPX4EeObB-20">
          <mxGeometry relative="1" as="geometry" />
        </mxCell>
        <mxCell id="Pt5lEyycjy911fsZ5f22-31" value="" style="shape=parallelogram;perimeter=parallelogramPerimeter;whiteSpace=wrap;html=1;fixedSize=1;fillColor=none;" vertex="1" parent="1">
          <mxGeometry x="325" y="330" width="175" height="40" as="geometry" />
        </mxCell>
        <mxCell id="Pt5lEyycjy911fsZ5f22-39" value="" style="edgeStyle=orthogonalEdgeStyle;rounded=0;orthogonalLoop=1;jettySize=auto;html=1;" edge="1" parent="1" source="Pt5lEyycjy911fsZ5f22-35" target="Pt5lEyycjy911fsZ5f22-38">
          <mxGeometry relative="1" as="geometry" />
        </mxCell>
        <mxCell id="Pt5lEyycjy911fsZ5f22-35" value="" style="shape=parallelogram;perimeter=parallelogramPerimeter;whiteSpace=wrap;html=1;fixedSize=1;fillColor=none;" vertex="1" parent="1">
          <mxGeometry x="150" y="505" width="90" height="60" as="geometry" />
        </mxCell>
        <mxCell id="Pt5lEyycjy911fsZ5f22-40" value="" style="edgeStyle=orthogonalEdgeStyle;rounded=0;orthogonalLoop=1;jettySize=auto;html=1;" edge="1" parent="1" source="Pt5lEyycjy911fsZ5f22-38" target="idIuEqh7UeTnPX4EeObB-65">
          <mxGeometry relative="1" as="geometry" />
        </mxCell>
        <mxCell id="Pt5lEyycjy911fsZ5f22-41" style="edgeStyle=orthogonalEdgeStyle;rounded=0;orthogonalLoop=1;jettySize=auto;html=1;exitX=0.5;exitY=1;exitDx=0;exitDy=0;entryX=0.5;entryY=1;entryDx=0;entryDy=0;" edge="1" parent="1" source="Pt5lEyycjy911fsZ5f22-38" target="idIuEqh7UeTnPX4EeObB-57">
          <mxGeometry relative="1" as="geometry" />
        </mxCell>
        <mxCell id="Pt5lEyycjy911fsZ5f22-38" value="" style="shape=parallelogram;perimeter=parallelogramPerimeter;whiteSpace=wrap;html=1;fixedSize=1;fillColor=none;" vertex="1" parent="1">
          <mxGeometry x="40" y="505" width="100" height="60" as="geometry" />
        </mxCell>
      </root>
    </mxGraphModel>
  </diagram>
</mxfile>
